<mxfile host="Electron" agent="Mozilla/5.0 (Windows NT 10.0; Win64; x64) AppleWebKit/537.36 (KHTML, like Gecko) draw.io/25.0.2 Chrome/128.0.6613.186 Electron/32.2.5 Safari/537.36" version="25.0.2">
  <diagram name="第 1 页" id="JmgHur5oTzGzp8T7doAf">
    <mxGraphModel dx="1185" dy="684" grid="1" gridSize="10" guides="1" tooltips="1" connect="1" arrows="1" fold="1" page="1" pageScale="1" pageWidth="827" pageHeight="1169" math="0" shadow="0">
      <root>
        <mxCell id="0" />
        <mxCell id="1" parent="0" />
        <mxCell id="cCmxVwHct7dQJAQGC1uz-27" value="" style="group" parent="1" vertex="1" connectable="0">
          <mxGeometry x="210" y="380" width="295" height="80" as="geometry" />
        </mxCell>
        <mxCell id="cCmxVwHct7dQJAQGC1uz-15" value="" style="shape=table;startSize=0;container=1;collapsible=0;childLayout=tableLayout;fontSize=16;" parent="cCmxVwHct7dQJAQGC1uz-27" vertex="1">
          <mxGeometry width="267" height="80" as="geometry" />
        </mxCell>
        <mxCell id="cCmxVwHct7dQJAQGC1uz-16" value="" style="shape=tableRow;horizontal=0;startSize=0;swimlaneHead=0;swimlaneBody=0;strokeColor=inherit;top=0;left=0;bottom=0;right=0;collapsible=0;dropTarget=0;fillColor=none;points=[[0,0.5],[1,0.5]];portConstraint=eastwest;fontSize=16;" parent="cCmxVwHct7dQJAQGC1uz-15" vertex="1">
          <mxGeometry width="267" height="40" as="geometry" />
        </mxCell>
        <mxCell id="cCmxVwHct7dQJAQGC1uz-17" value="YU" style="shape=partialRectangle;html=1;whiteSpace=wrap;connectable=0;overflow=hidden;top=0;left=0;bottom=0;right=0;pointerEvents=1;fontSize=16;" parent="cCmxVwHct7dQJAQGC1uz-16" vertex="1">
          <mxGeometry width="67" height="40" as="geometry">
            <mxRectangle width="67" height="40" as="alternateBounds" />
          </mxGeometry>
        </mxCell>
        <mxCell id="cCmxVwHct7dQJAQGC1uz-18" value="YV" style="shape=partialRectangle;html=1;whiteSpace=wrap;connectable=0;overflow=hidden;top=0;left=0;bottom=0;right=0;pointerEvents=1;fontSize=16;" parent="cCmxVwHct7dQJAQGC1uz-16" vertex="1">
          <mxGeometry x="67" width="66" height="40" as="geometry">
            <mxRectangle width="66" height="40" as="alternateBounds" />
          </mxGeometry>
        </mxCell>
        <mxCell id="cCmxVwHct7dQJAQGC1uz-19" value="YU" style="shape=partialRectangle;html=1;whiteSpace=wrap;connectable=0;strokeColor=#666666;overflow=hidden;fillColor=#f5f5f5;top=0;left=0;bottom=0;right=0;pointerEvents=1;fontSize=16;fontColor=#333333;" parent="cCmxVwHct7dQJAQGC1uz-16" vertex="1">
          <mxGeometry x="133" width="67" height="40" as="geometry">
            <mxRectangle width="67" height="40" as="alternateBounds" />
          </mxGeometry>
        </mxCell>
        <mxCell id="cCmxVwHct7dQJAQGC1uz-20" value="YV" style="shape=partialRectangle;html=1;whiteSpace=wrap;connectable=0;strokeColor=#666666;overflow=hidden;fillColor=#f5f5f5;top=0;left=0;bottom=0;right=0;pointerEvents=1;fontSize=16;fontColor=#333333;" parent="cCmxVwHct7dQJAQGC1uz-16" vertex="1">
          <mxGeometry x="200" width="67" height="40" as="geometry">
            <mxRectangle width="67" height="40" as="alternateBounds" />
          </mxGeometry>
        </mxCell>
        <mxCell id="cCmxVwHct7dQJAQGC1uz-21" value="" style="shape=tableRow;horizontal=0;startSize=0;swimlaneHead=0;swimlaneBody=0;strokeColor=inherit;top=0;left=0;bottom=0;right=0;collapsible=0;dropTarget=0;fillColor=none;points=[[0,0.5],[1,0.5]];portConstraint=eastwest;fontSize=16;" parent="cCmxVwHct7dQJAQGC1uz-15" vertex="1">
          <mxGeometry y="40" width="267" height="40" as="geometry" />
        </mxCell>
        <mxCell id="cCmxVwHct7dQJAQGC1uz-22" value="Y" style="shape=partialRectangle;html=1;whiteSpace=wrap;connectable=0;overflow=hidden;top=0;left=0;bottom=0;right=0;pointerEvents=1;fontSize=16;" parent="cCmxVwHct7dQJAQGC1uz-21" vertex="1">
          <mxGeometry width="67" height="40" as="geometry">
            <mxRectangle width="67" height="40" as="alternateBounds" />
          </mxGeometry>
        </mxCell>
        <mxCell id="cCmxVwHct7dQJAQGC1uz-23" value="Y" style="shape=partialRectangle;html=1;whiteSpace=wrap;connectable=0;overflow=hidden;top=0;left=0;bottom=0;right=0;pointerEvents=1;fontSize=16;" parent="cCmxVwHct7dQJAQGC1uz-21" vertex="1">
          <mxGeometry x="67" width="66" height="40" as="geometry">
            <mxRectangle width="66" height="40" as="alternateBounds" />
          </mxGeometry>
        </mxCell>
        <mxCell id="cCmxVwHct7dQJAQGC1uz-24" value="Y" style="shape=partialRectangle;html=1;whiteSpace=wrap;connectable=0;strokeColor=#666666;overflow=hidden;fillColor=#f5f5f5;top=0;left=0;bottom=0;right=0;pointerEvents=1;fontSize=16;fontColor=#333333;" parent="cCmxVwHct7dQJAQGC1uz-21" vertex="1">
          <mxGeometry x="133" width="67" height="40" as="geometry">
            <mxRectangle width="67" height="40" as="alternateBounds" />
          </mxGeometry>
        </mxCell>
        <mxCell id="cCmxVwHct7dQJAQGC1uz-25" value="Y" style="shape=partialRectangle;html=1;whiteSpace=wrap;connectable=0;strokeColor=#666666;overflow=hidden;fillColor=#f5f5f5;top=0;left=0;bottom=0;right=0;pointerEvents=1;fontSize=16;fontColor=#333333;" parent="cCmxVwHct7dQJAQGC1uz-21" vertex="1">
          <mxGeometry x="200" width="67" height="40" as="geometry">
            <mxRectangle width="67" height="40" as="alternateBounds" />
          </mxGeometry>
        </mxCell>
        <mxCell id="cCmxVwHct7dQJAQGC1uz-26" value="4:2:0 采样" style="text;html=1;align=center;verticalAlign=middle;resizable=0;points=[];autosize=1;strokeColor=none;fillColor=none;rotation=90;" parent="cCmxVwHct7dQJAQGC1uz-27" vertex="1">
          <mxGeometry x="240" y="25" width="80" height="30" as="geometry" />
        </mxCell>
        <mxCell id="cCmxVwHct7dQJAQGC1uz-66" value="" style="group" parent="1" vertex="1" connectable="0">
          <mxGeometry x="210" y="280" width="295" height="80" as="geometry" />
        </mxCell>
        <mxCell id="cCmxVwHct7dQJAQGC1uz-54" value="" style="shape=table;startSize=0;container=1;collapsible=0;childLayout=tableLayout;fontSize=16;" parent="cCmxVwHct7dQJAQGC1uz-66" vertex="1">
          <mxGeometry width="267" height="80" as="geometry" />
        </mxCell>
        <mxCell id="cCmxVwHct7dQJAQGC1uz-55" value="" style="shape=tableRow;horizontal=0;startSize=0;swimlaneHead=0;swimlaneBody=0;strokeColor=inherit;top=0;left=0;bottom=0;right=0;collapsible=0;dropTarget=0;fillColor=none;points=[[0,0.5],[1,0.5]];portConstraint=eastwest;fontSize=16;" parent="cCmxVwHct7dQJAQGC1uz-54" vertex="1">
          <mxGeometry width="267" height="40" as="geometry" />
        </mxCell>
        <mxCell id="cCmxVwHct7dQJAQGC1uz-56" value="YU" style="shape=partialRectangle;html=1;whiteSpace=wrap;connectable=0;overflow=hidden;top=0;left=0;bottom=0;right=0;pointerEvents=1;fontSize=16;" parent="cCmxVwHct7dQJAQGC1uz-55" vertex="1">
          <mxGeometry width="67" height="40" as="geometry">
            <mxRectangle width="67" height="40" as="alternateBounds" />
          </mxGeometry>
        </mxCell>
        <mxCell id="cCmxVwHct7dQJAQGC1uz-57" value="YV" style="shape=partialRectangle;html=1;whiteSpace=wrap;connectable=0;overflow=hidden;top=0;left=0;bottom=0;right=0;pointerEvents=1;fontSize=16;" parent="cCmxVwHct7dQJAQGC1uz-55" vertex="1">
          <mxGeometry x="67" width="66" height="40" as="geometry">
            <mxRectangle width="66" height="40" as="alternateBounds" />
          </mxGeometry>
        </mxCell>
        <mxCell id="cCmxVwHct7dQJAQGC1uz-58" value="YU" style="shape=partialRectangle;html=1;whiteSpace=wrap;connectable=0;strokeColor=#666666;overflow=hidden;fillColor=#f5f5f5;top=0;left=0;bottom=0;right=0;pointerEvents=1;fontSize=16;fontColor=#333333;" parent="cCmxVwHct7dQJAQGC1uz-55" vertex="1">
          <mxGeometry x="133" width="67" height="40" as="geometry">
            <mxRectangle width="67" height="40" as="alternateBounds" />
          </mxGeometry>
        </mxCell>
        <mxCell id="cCmxVwHct7dQJAQGC1uz-59" value="YV" style="shape=partialRectangle;html=1;whiteSpace=wrap;connectable=0;strokeColor=#666666;overflow=hidden;fillColor=#f5f5f5;top=0;left=0;bottom=0;right=0;pointerEvents=1;fontSize=16;fontColor=#333333;" parent="cCmxVwHct7dQJAQGC1uz-55" vertex="1">
          <mxGeometry x="200" width="67" height="40" as="geometry">
            <mxRectangle width="67" height="40" as="alternateBounds" />
          </mxGeometry>
        </mxCell>
        <mxCell id="cCmxVwHct7dQJAQGC1uz-60" value="" style="shape=tableRow;horizontal=0;startSize=0;swimlaneHead=0;swimlaneBody=0;strokeColor=inherit;top=0;left=0;bottom=0;right=0;collapsible=0;dropTarget=0;fillColor=none;points=[[0,0.5],[1,0.5]];portConstraint=eastwest;fontSize=16;" parent="cCmxVwHct7dQJAQGC1uz-54" vertex="1">
          <mxGeometry y="40" width="267" height="40" as="geometry" />
        </mxCell>
        <mxCell id="cCmxVwHct7dQJAQGC1uz-61" value="YU" style="shape=partialRectangle;html=1;whiteSpace=wrap;connectable=0;strokeColor=#6c8ebf;overflow=hidden;fillColor=#dae8fc;top=0;left=0;bottom=0;right=0;pointerEvents=1;fontSize=16;" parent="cCmxVwHct7dQJAQGC1uz-60" vertex="1">
          <mxGeometry width="67" height="40" as="geometry">
            <mxRectangle width="67" height="40" as="alternateBounds" />
          </mxGeometry>
        </mxCell>
        <mxCell id="cCmxVwHct7dQJAQGC1uz-62" value="YV" style="shape=partialRectangle;html=1;whiteSpace=wrap;connectable=0;strokeColor=#6c8ebf;overflow=hidden;fillColor=#dae8fc;top=0;left=0;bottom=0;right=0;pointerEvents=1;fontSize=16;" parent="cCmxVwHct7dQJAQGC1uz-60" vertex="1">
          <mxGeometry x="67" width="66" height="40" as="geometry">
            <mxRectangle width="66" height="40" as="alternateBounds" />
          </mxGeometry>
        </mxCell>
        <mxCell id="cCmxVwHct7dQJAQGC1uz-63" value="YU" style="shape=partialRectangle;html=1;whiteSpace=wrap;connectable=0;strokeColor=#82b366;overflow=hidden;fillColor=#d5e8d4;top=0;left=0;bottom=0;right=0;pointerEvents=1;fontSize=16;" parent="cCmxVwHct7dQJAQGC1uz-60" vertex="1">
          <mxGeometry x="133" width="67" height="40" as="geometry">
            <mxRectangle width="67" height="40" as="alternateBounds" />
          </mxGeometry>
        </mxCell>
        <mxCell id="cCmxVwHct7dQJAQGC1uz-64" value="YV" style="shape=partialRectangle;html=1;whiteSpace=wrap;connectable=0;strokeColor=#82b366;overflow=hidden;fillColor=#d5e8d4;top=0;left=0;bottom=0;right=0;pointerEvents=1;fontSize=16;" parent="cCmxVwHct7dQJAQGC1uz-60" vertex="1">
          <mxGeometry x="200" width="67" height="40" as="geometry">
            <mxRectangle width="67" height="40" as="alternateBounds" />
          </mxGeometry>
        </mxCell>
        <mxCell id="cCmxVwHct7dQJAQGC1uz-65" value="4:2:2 采样" style="text;html=1;align=center;verticalAlign=middle;resizable=0;points=[];autosize=1;strokeColor=none;fillColor=none;rotation=90;" parent="cCmxVwHct7dQJAQGC1uz-66" vertex="1">
          <mxGeometry x="240" y="25" width="80" height="30" as="geometry" />
        </mxCell>
        <mxCell id="cCmxVwHct7dQJAQGC1uz-67" value="" style="group" parent="1" vertex="1" connectable="0">
          <mxGeometry x="210" y="480" width="295" height="80" as="geometry" />
        </mxCell>
        <mxCell id="cCmxVwHct7dQJAQGC1uz-30" value="" style="shape=table;startSize=0;container=1;collapsible=0;childLayout=tableLayout;fontSize=16;" parent="cCmxVwHct7dQJAQGC1uz-67" vertex="1">
          <mxGeometry width="267" height="80" as="geometry" />
        </mxCell>
        <mxCell id="cCmxVwHct7dQJAQGC1uz-31" value="" style="shape=tableRow;horizontal=0;startSize=0;swimlaneHead=0;swimlaneBody=0;strokeColor=inherit;top=0;left=0;bottom=0;right=0;collapsible=0;dropTarget=0;fillColor=none;points=[[0,0.5],[1,0.5]];portConstraint=eastwest;fontSize=16;" parent="cCmxVwHct7dQJAQGC1uz-30" vertex="1">
          <mxGeometry width="267" height="40" as="geometry" />
        </mxCell>
        <mxCell id="cCmxVwHct7dQJAQGC1uz-32" value="Y" style="shape=partialRectangle;html=1;whiteSpace=wrap;connectable=0;overflow=hidden;top=0;left=0;bottom=0;right=0;pointerEvents=1;fontSize=16;" parent="cCmxVwHct7dQJAQGC1uz-31" vertex="1">
          <mxGeometry width="67" height="40" as="geometry">
            <mxRectangle width="67" height="40" as="alternateBounds" />
          </mxGeometry>
        </mxCell>
        <mxCell id="cCmxVwHct7dQJAQGC1uz-33" value="Y" style="shape=partialRectangle;html=1;whiteSpace=wrap;connectable=0;overflow=hidden;top=0;left=0;bottom=0;right=0;pointerEvents=1;fontSize=16;" parent="cCmxVwHct7dQJAQGC1uz-31" vertex="1">
          <mxGeometry x="67" width="66" height="40" as="geometry">
            <mxRectangle width="66" height="40" as="alternateBounds" />
          </mxGeometry>
        </mxCell>
        <mxCell id="cCmxVwHct7dQJAQGC1uz-34" value="Y" style="shape=partialRectangle;html=1;whiteSpace=wrap;connectable=0;overflow=hidden;top=0;left=0;bottom=0;right=0;pointerEvents=1;fontSize=16;" parent="cCmxVwHct7dQJAQGC1uz-31" vertex="1">
          <mxGeometry x="133" width="67" height="40" as="geometry">
            <mxRectangle width="67" height="40" as="alternateBounds" />
          </mxGeometry>
        </mxCell>
        <mxCell id="cCmxVwHct7dQJAQGC1uz-35" value="YUV" style="shape=partialRectangle;html=1;whiteSpace=wrap;connectable=0;overflow=hidden;top=0;left=0;bottom=0;right=0;pointerEvents=1;fontSize=16;" parent="cCmxVwHct7dQJAQGC1uz-31" vertex="1">
          <mxGeometry x="200" width="67" height="40" as="geometry">
            <mxRectangle width="67" height="40" as="alternateBounds" />
          </mxGeometry>
        </mxCell>
        <mxCell id="cCmxVwHct7dQJAQGC1uz-36" value="" style="shape=tableRow;horizontal=0;startSize=0;swimlaneHead=0;swimlaneBody=0;strokeColor=inherit;top=0;left=0;bottom=0;right=0;collapsible=0;dropTarget=0;fillColor=none;points=[[0,0.5],[1,0.5]];portConstraint=eastwest;fontSize=16;" parent="cCmxVwHct7dQJAQGC1uz-30" vertex="1">
          <mxGeometry y="40" width="267" height="40" as="geometry" />
        </mxCell>
        <mxCell id="cCmxVwHct7dQJAQGC1uz-37" value="Y" style="shape=partialRectangle;html=1;whiteSpace=wrap;connectable=0;strokeColor=#666666;overflow=hidden;fillColor=#f5f5f5;top=0;left=0;bottom=0;right=0;pointerEvents=1;fontSize=16;fontColor=#333333;" parent="cCmxVwHct7dQJAQGC1uz-36" vertex="1">
          <mxGeometry width="67" height="40" as="geometry">
            <mxRectangle width="67" height="40" as="alternateBounds" />
          </mxGeometry>
        </mxCell>
        <mxCell id="cCmxVwHct7dQJAQGC1uz-38" value="Y" style="shape=partialRectangle;html=1;whiteSpace=wrap;connectable=0;strokeColor=#666666;overflow=hidden;fillColor=#f5f5f5;top=0;left=0;bottom=0;right=0;pointerEvents=1;fontSize=16;fontColor=#333333;" parent="cCmxVwHct7dQJAQGC1uz-36" vertex="1">
          <mxGeometry x="67" width="66" height="40" as="geometry">
            <mxRectangle width="66" height="40" as="alternateBounds" />
          </mxGeometry>
        </mxCell>
        <mxCell id="cCmxVwHct7dQJAQGC1uz-39" value="Y" style="shape=partialRectangle;html=1;whiteSpace=wrap;connectable=0;strokeColor=#666666;overflow=hidden;fillColor=#f5f5f5;top=0;left=0;bottom=0;right=0;pointerEvents=1;fontSize=16;fontColor=#333333;" parent="cCmxVwHct7dQJAQGC1uz-36" vertex="1">
          <mxGeometry x="133" width="67" height="40" as="geometry">
            <mxRectangle width="67" height="40" as="alternateBounds" />
          </mxGeometry>
        </mxCell>
        <mxCell id="cCmxVwHct7dQJAQGC1uz-40" value="YUV" style="shape=partialRectangle;html=1;whiteSpace=wrap;connectable=0;strokeColor=#666666;overflow=hidden;fillColor=#f5f5f5;top=0;left=0;bottom=0;right=0;pointerEvents=1;fontSize=16;fontColor=#333333;" parent="cCmxVwHct7dQJAQGC1uz-36" vertex="1">
          <mxGeometry x="200" width="67" height="40" as="geometry">
            <mxRectangle width="67" height="40" as="alternateBounds" />
          </mxGeometry>
        </mxCell>
        <mxCell id="cCmxVwHct7dQJAQGC1uz-41" value="4:1:1 采样" style="text;html=1;align=center;verticalAlign=middle;resizable=0;points=[];autosize=1;strokeColor=none;fillColor=none;rotation=90;" parent="cCmxVwHct7dQJAQGC1uz-67" vertex="1">
          <mxGeometry x="240" y="25" width="80" height="30" as="geometry" />
        </mxCell>
        <mxCell id="P4U-eCEBl3AGCssnRcsC-24" value="" style="group" vertex="1" connectable="0" parent="1">
          <mxGeometry x="210" y="80" width="295" height="80" as="geometry" />
        </mxCell>
        <mxCell id="P4U-eCEBl3AGCssnRcsC-25" value="" style="shape=table;startSize=0;container=1;collapsible=0;childLayout=tableLayout;fontSize=16;" vertex="1" parent="P4U-eCEBl3AGCssnRcsC-24">
          <mxGeometry width="267" height="80" as="geometry" />
        </mxCell>
        <mxCell id="P4U-eCEBl3AGCssnRcsC-26" value="" style="shape=tableRow;horizontal=0;startSize=0;swimlaneHead=0;swimlaneBody=0;strokeColor=inherit;top=0;left=0;bottom=0;right=0;collapsible=0;dropTarget=0;fillColor=none;points=[[0,0.5],[1,0.5]];portConstraint=eastwest;fontSize=16;" vertex="1" parent="P4U-eCEBl3AGCssnRcsC-25">
          <mxGeometry width="267" height="40" as="geometry" />
        </mxCell>
        <mxCell id="P4U-eCEBl3AGCssnRcsC-27" value="YUV" style="shape=partialRectangle;html=1;whiteSpace=wrap;connectable=0;overflow=hidden;top=0;left=0;bottom=0;right=0;pointerEvents=1;fontSize=16;" vertex="1" parent="P4U-eCEBl3AGCssnRcsC-26">
          <mxGeometry width="67" height="40" as="geometry">
            <mxRectangle width="67" height="40" as="alternateBounds" />
          </mxGeometry>
        </mxCell>
        <mxCell id="P4U-eCEBl3AGCssnRcsC-28" value="YUV" style="shape=partialRectangle;html=1;whiteSpace=wrap;connectable=0;strokeColor=#666666;overflow=hidden;fillColor=#f5f5f5;top=0;left=0;bottom=0;right=0;pointerEvents=1;fontSize=16;fontColor=#333333;" vertex="1" parent="P4U-eCEBl3AGCssnRcsC-26">
          <mxGeometry x="67" width="66" height="40" as="geometry">
            <mxRectangle width="66" height="40" as="alternateBounds" />
          </mxGeometry>
        </mxCell>
        <mxCell id="P4U-eCEBl3AGCssnRcsC-29" value="YUV" style="shape=partialRectangle;html=1;whiteSpace=wrap;connectable=0;strokeColor=#6c8ebf;overflow=hidden;fillColor=#dae8fc;top=0;left=0;bottom=0;right=0;pointerEvents=1;fontSize=16;" vertex="1" parent="P4U-eCEBl3AGCssnRcsC-26">
          <mxGeometry x="133" width="67" height="40" as="geometry">
            <mxRectangle width="67" height="40" as="alternateBounds" />
          </mxGeometry>
        </mxCell>
        <mxCell id="P4U-eCEBl3AGCssnRcsC-30" value="YUV" style="shape=partialRectangle;html=1;whiteSpace=wrap;connectable=0;strokeColor=#82b366;overflow=hidden;fillColor=#d5e8d4;top=0;left=0;bottom=0;right=0;pointerEvents=1;fontSize=16;" vertex="1" parent="P4U-eCEBl3AGCssnRcsC-26">
          <mxGeometry x="200" width="67" height="40" as="geometry">
            <mxRectangle width="67" height="40" as="alternateBounds" />
          </mxGeometry>
        </mxCell>
        <mxCell id="P4U-eCEBl3AGCssnRcsC-31" value="" style="shape=tableRow;horizontal=0;startSize=0;swimlaneHead=0;swimlaneBody=0;strokeColor=inherit;top=0;left=0;bottom=0;right=0;collapsible=0;dropTarget=0;fillColor=none;points=[[0,0.5],[1,0.5]];portConstraint=eastwest;fontSize=16;" vertex="1" parent="P4U-eCEBl3AGCssnRcsC-25">
          <mxGeometry y="40" width="267" height="40" as="geometry" />
        </mxCell>
        <mxCell id="P4U-eCEBl3AGCssnRcsC-32" value="YUV" style="shape=partialRectangle;html=1;whiteSpace=wrap;connectable=0;strokeColor=#b85450;overflow=hidden;fillColor=#f8cecc;top=0;left=0;bottom=0;right=0;pointerEvents=1;fontSize=16;" vertex="1" parent="P4U-eCEBl3AGCssnRcsC-31">
          <mxGeometry width="67" height="40" as="geometry">
            <mxRectangle width="67" height="40" as="alternateBounds" />
          </mxGeometry>
        </mxCell>
        <mxCell id="P4U-eCEBl3AGCssnRcsC-33" value="YUV" style="shape=partialRectangle;html=1;whiteSpace=wrap;connectable=0;strokeColor=#9673a6;overflow=hidden;fillColor=#e1d5e7;top=0;left=0;bottom=0;right=0;pointerEvents=1;fontSize=16;" vertex="1" parent="P4U-eCEBl3AGCssnRcsC-31">
          <mxGeometry x="67" width="66" height="40" as="geometry">
            <mxRectangle width="66" height="40" as="alternateBounds" />
          </mxGeometry>
        </mxCell>
        <mxCell id="P4U-eCEBl3AGCssnRcsC-34" value="YUV" style="shape=partialRectangle;html=1;whiteSpace=wrap;connectable=0;strokeColor=#BD7000;overflow=hidden;fillColor=#f0a30a;top=0;left=0;bottom=0;right=0;pointerEvents=1;fontSize=16;fontColor=#000000;" vertex="1" parent="P4U-eCEBl3AGCssnRcsC-31">
          <mxGeometry x="133" width="67" height="40" as="geometry">
            <mxRectangle width="67" height="40" as="alternateBounds" />
          </mxGeometry>
        </mxCell>
        <mxCell id="P4U-eCEBl3AGCssnRcsC-35" value="YUV" style="shape=partialRectangle;html=1;whiteSpace=wrap;connectable=0;strokeColor=#B09500;overflow=hidden;fillColor=#e3c800;top=0;left=0;bottom=0;right=0;pointerEvents=1;fontSize=16;fontColor=#000000;" vertex="1" parent="P4U-eCEBl3AGCssnRcsC-31">
          <mxGeometry x="200" width="67" height="40" as="geometry">
            <mxRectangle width="67" height="40" as="alternateBounds" />
          </mxGeometry>
        </mxCell>
        <mxCell id="P4U-eCEBl3AGCssnRcsC-36" value="4:4:4 采样" style="text;html=1;align=center;verticalAlign=middle;resizable=0;points=[];autosize=1;strokeColor=none;fillColor=none;rotation=90;" vertex="1" parent="P4U-eCEBl3AGCssnRcsC-24">
          <mxGeometry x="240" y="25" width="80" height="30" as="geometry" />
        </mxCell>
        <mxCell id="P4U-eCEBl3AGCssnRcsC-39" value="" style="group" vertex="1" connectable="0" parent="1">
          <mxGeometry x="210" y="180" width="295" height="80" as="geometry" />
        </mxCell>
        <mxCell id="P4U-eCEBl3AGCssnRcsC-40" value="" style="group" vertex="1" connectable="0" parent="P4U-eCEBl3AGCssnRcsC-39">
          <mxGeometry width="295" height="80" as="geometry" />
        </mxCell>
        <mxCell id="jDEffaR3LtWZijg_jxCW-1" value="" style="shape=table;startSize=0;container=1;collapsible=0;childLayout=tableLayout;fontSize=16;movable=1;resizable=1;rotatable=1;deletable=1;editable=1;locked=0;connectable=1;" parent="P4U-eCEBl3AGCssnRcsC-40" vertex="1">
          <mxGeometry width="267" height="80" as="geometry" />
        </mxCell>
        <mxCell id="jDEffaR3LtWZijg_jxCW-6" value="" style="shape=tableRow;horizontal=0;startSize=0;swimlaneHead=0;swimlaneBody=0;strokeColor=inherit;top=0;left=0;bottom=0;right=0;collapsible=0;dropTarget=0;fillColor=none;points=[[0,0.5],[1,0.5]];portConstraint=eastwest;fontSize=16;" parent="jDEffaR3LtWZijg_jxCW-1" vertex="1">
          <mxGeometry width="267" height="40" as="geometry" />
        </mxCell>
        <mxCell id="jDEffaR3LtWZijg_jxCW-7" value="YUV" style="shape=partialRectangle;html=1;whiteSpace=wrap;connectable=0;overflow=hidden;top=0;left=0;bottom=0;right=0;pointerEvents=1;fontSize=16;" parent="jDEffaR3LtWZijg_jxCW-6" vertex="1">
          <mxGeometry width="67" height="40" as="geometry">
            <mxRectangle width="67" height="40" as="alternateBounds" />
          </mxGeometry>
        </mxCell>
        <mxCell id="jDEffaR3LtWZijg_jxCW-8" value="YUV" style="shape=partialRectangle;html=1;whiteSpace=wrap;connectable=0;strokeColor=#666666;overflow=hidden;fillColor=#f5f5f5;top=0;left=0;bottom=0;right=0;pointerEvents=1;fontSize=16;fontColor=#333333;" parent="jDEffaR3LtWZijg_jxCW-6" vertex="1">
          <mxGeometry x="67" width="66" height="40" as="geometry">
            <mxRectangle width="66" height="40" as="alternateBounds" />
          </mxGeometry>
        </mxCell>
        <mxCell id="jDEffaR3LtWZijg_jxCW-9" value="YUV" style="shape=partialRectangle;html=1;whiteSpace=wrap;connectable=0;strokeColor=#6c8ebf;overflow=hidden;fillColor=#dae8fc;top=0;left=0;bottom=0;right=0;pointerEvents=1;fontSize=16;" parent="jDEffaR3LtWZijg_jxCW-6" vertex="1">
          <mxGeometry x="133" width="67" height="40" as="geometry">
            <mxRectangle width="67" height="40" as="alternateBounds" />
          </mxGeometry>
        </mxCell>
        <mxCell id="cCmxVwHct7dQJAQGC1uz-1" value="YUV" style="shape=partialRectangle;html=1;whiteSpace=wrap;connectable=0;strokeColor=#82b366;overflow=hidden;fillColor=#d5e8d4;top=0;left=0;bottom=0;right=0;pointerEvents=1;fontSize=16;" parent="jDEffaR3LtWZijg_jxCW-6" vertex="1">
          <mxGeometry x="200" width="67" height="40" as="geometry">
            <mxRectangle width="67" height="40" as="alternateBounds" />
          </mxGeometry>
        </mxCell>
        <mxCell id="jDEffaR3LtWZijg_jxCW-10" value="" style="shape=tableRow;horizontal=0;startSize=0;swimlaneHead=0;swimlaneBody=0;strokeColor=default;top=0;left=0;bottom=0;right=0;collapsible=0;dropTarget=0;fillColor=none;points=[[0,0.5],[1,0.5]];portConstraint=eastwest;fontSize=16;swimlaneLine=0;" parent="jDEffaR3LtWZijg_jxCW-1" vertex="1">
          <mxGeometry y="40" width="267" height="40" as="geometry" />
        </mxCell>
        <mxCell id="jDEffaR3LtWZijg_jxCW-11" value="Y" style="shape=partialRectangle;html=1;whiteSpace=wrap;connectable=0;overflow=hidden;top=0;left=0;bottom=0;right=0;pointerEvents=1;fontSize=16;" parent="jDEffaR3LtWZijg_jxCW-10" vertex="1">
          <mxGeometry width="67" height="40" as="geometry">
            <mxRectangle width="67" height="40" as="alternateBounds" />
          </mxGeometry>
        </mxCell>
        <mxCell id="jDEffaR3LtWZijg_jxCW-12" value="Y" style="shape=partialRectangle;html=1;whiteSpace=wrap;connectable=0;strokeColor=#666666;overflow=hidden;fillColor=#f5f5f5;top=0;left=0;bottom=0;right=0;pointerEvents=1;fontSize=16;fontColor=#333333;" parent="jDEffaR3LtWZijg_jxCW-10" vertex="1">
          <mxGeometry x="67" width="66" height="40" as="geometry">
            <mxRectangle width="66" height="40" as="alternateBounds" />
          </mxGeometry>
        </mxCell>
        <mxCell id="jDEffaR3LtWZijg_jxCW-13" value="Y" style="shape=partialRectangle;html=1;whiteSpace=wrap;connectable=0;strokeColor=#6c8ebf;overflow=hidden;fillColor=#dae8fc;top=0;left=0;bottom=0;right=0;pointerEvents=1;fontSize=16;" parent="jDEffaR3LtWZijg_jxCW-10" vertex="1">
          <mxGeometry x="133" width="67" height="40" as="geometry">
            <mxRectangle width="67" height="40" as="alternateBounds" />
          </mxGeometry>
        </mxCell>
        <mxCell id="cCmxVwHct7dQJAQGC1uz-2" value="Y" style="shape=partialRectangle;html=1;whiteSpace=wrap;connectable=0;strokeColor=#82b366;overflow=hidden;fillColor=#d5e8d4;top=0;left=0;bottom=0;right=0;pointerEvents=1;fontSize=16;" parent="jDEffaR3LtWZijg_jxCW-10" vertex="1">
          <mxGeometry x="200" width="67" height="40" as="geometry">
            <mxRectangle width="67" height="40" as="alternateBounds" />
          </mxGeometry>
        </mxCell>
        <mxCell id="cCmxVwHct7dQJAQGC1uz-14" value="4:4:0 采样" style="text;html=1;align=center;verticalAlign=middle;resizable=0;points=[];autosize=1;strokeColor=none;fillColor=none;rotation=90;" parent="P4U-eCEBl3AGCssnRcsC-40" vertex="1">
          <mxGeometry x="240" y="25" width="80" height="30" as="geometry" />
        </mxCell>
      </root>
    </mxGraphModel>
  </diagram>
</mxfile>
